# xmcd
#
# Track frame offsets:
#	150
#	27606
#	46396
#	61845
#	82705
#	98795
#	114624
#	131942
#	152287
#	166629
#	188238
#	204442
#	223010
#
# Disc length: 3238 seconds
#
# Revision: 1
# Processed by: cddbd v1.4PL0 Copyright (c) Steve Scherf et al.
# Submitted via: audiograbber 1.80
#
DISCID=a70ca40d
DTITLE=Va - Superrappin - Mixed By Kut-L and Adlib
DYEAR=1900
DGENRE=
TTITLE0=Grand Agent Ft. Planet Asia - Its Only Right
TTITLE1=J Rawls Ft. J - Live
TTITLE2=Biz Markie - Turn Tha Party Out
TTITLE3=Lone Catalysts Ft. J - Live
TTITLE4=Mike Zoot Ft. Labba - Spread Love (Remix)
TTITLE5=Bravo and Sandman Ft. Rasco - Aged  And Laced
TTITLE6=Phife Dawg - Miscellaneous (Luv Boat Remix)
TTITLE7=Lootpack - Weededed (Vertigo Mix)
TTITLE8=J Rawls - They Cant See Me (Remix)
TTITLE9=Cali Agents Ft Chuck Taylor - Up Close And Personal
TTITLE10=Declaime Ft. Quasimoto - Dont Trip
TTITLE11=J - 88
TTITLE12=Rubix, Gauge, Ig Off And Hazardous - Phonograpical Material
EXTD=
EXTT0=
EXTT1=
EXTT2=
EXTT3=
EXTT4=
EXTT5=
EXTT6=
EXTT7=
EXTT8=
EXTT9=
EXTT10=
EXTT11=
EXTT12=
PLAYORDER=
